<svg width="120" height="120" viewBox="0 0 120 120" fill="none" xmlns="http://www.w3.org/2000/svg">
<path d="M98 40H76L61 55H60L45 40H23V19L6.00001 2H115L98 19V40Z" fill="white" stroke="black" stroke-width="4" stroke-linejoin="round"/>
<path d="M60.5 105.5V2.5" stroke="black" stroke-width="3" stroke-linejoin="round"/>
<path d="M23.5 39.5L60.5 2.5" stroke="black" stroke-width="3" stroke-linejoin="round"/>
<path d="M97.5 39.5L60.5 2.5" stroke="black" stroke-width="3" stroke-linejoin="round"/>
<path d="M68.3406 92.3138L60.159 88.564L53.5304 91.0261L49.7806 99.2077L52.2427 105.836L60.4244 109.586L67.0529 107.124L70.8027 98.9424L68.3406 92.3138Z" fill="white" stroke="black" stroke-width="4" stroke-linejoin="round"/>
<path d="M69.3824 103.241L76.0867 103.014L80.2912 108.241" stroke="black" stroke-width="3" stroke-linecap="round" stroke-linejoin="round"/>
<path d="M51.201 94.9086L46.9965 89.6815L40.2922 89.9088" stroke="black" stroke-width="3" stroke-linecap="round" stroke-linejoin="round"/>
<path d="M65.9734 108.279L71.4278 110.779L73.89 117.408" stroke="black" stroke-width="3" stroke-linecap="round" stroke-linejoin="round"/>
<path d="M49.6102 100.78L43.2467 97.8631L36.6181 100.325" stroke="black" stroke-width="3" stroke-linecap="round" stroke-linejoin="round"/>
<path d="M70.8974 95.1356L76.2002 93.1659L82.5637 96.0825" stroke="black" stroke-width="3" stroke-linecap="round" stroke-linejoin="round"/>
<path d="M56.3523 88.4693L54.3826 83.1665L48.0191 80.2499" stroke="black" stroke-width="3" stroke-linecap="round" stroke-linejoin="round"/>
<path d="M97.5 2.5L86.5 13.5V28.5H71.5L60.5 39.5L49.5 28.5H34.5V13.5L23.5 2.5" stroke="black" stroke-width="3" stroke-linecap="round" stroke-linejoin="round"/>
<path d="M81.5 2.5L75.5 8.5V17.5H66.5L60.5 23.5L54.5 17.5H45.5V8.5L39.5 2.5" stroke="black" stroke-width="3" stroke-linecap="round" stroke-linejoin="round"/>
</svg>
