<svg width="120" height="120" viewBox="0 0 120 120" fill="none" xmlns="http://www.w3.org/2000/svg">
<path d="M101 36L80 38.5L67 55.5L47.5 40.5L24.5 41.5L21.5 18.5L6.00001 2H115L99.5 15.5L101 36Z" fill="white" stroke="black" stroke-width="4" stroke-linejoin="round"/>
<path d="M73 100.5L60.5 2.5" stroke="black" stroke-width="3" stroke-linejoin="round"/>
<path d="M24 42L60.5 2.5" stroke="black" stroke-width="3" stroke-linejoin="round"/>
<path d="M100.5 35L60.5 2.5" stroke="black" stroke-width="3" stroke-linejoin="round"/>
<path d="M79.1256 89.3367L70.289 87.6294L64.4313 91.5901L62.724 100.427L66.6847 106.284L75.5213 107.992L81.379 104.031L83.0863 95.1944L79.1256 89.3367Z" fill="white" stroke="black" stroke-width="4" stroke-linejoin="round"/>
<path d="M82.7236 99.7075L89.1837 97.9002L94.5057 101.984" stroke="black" stroke-width="3" stroke-linecap="round" stroke-linejoin="round"/>
<path d="M63.0867 95.9135L57.7648 91.8298L51.3046 93.6371" stroke="black" stroke-width="3" stroke-linecap="round" stroke-linejoin="round"/>
<path d="M80.6035 105.409L86.4946 106.547L90.4553 112.405" stroke="black" stroke-width="3" stroke-linecap="round" stroke-linejoin="round"/>
<path d="M62.9304 101.994L56.0575 100.666L50.1997 104.627" stroke="black" stroke-width="3" stroke-linecap="round" stroke-linejoin="round"/>
<path d="M82.2775 91.4734L86.9637 88.3048L93.8366 89.6328" stroke="black" stroke-width="3" stroke-linecap="round" stroke-linejoin="round"/>
<path d="M66.568 88.4382L63.3995 83.752L56.5266 82.4241" stroke="black" stroke-width="3" stroke-linecap="round" stroke-linejoin="round"/>
<path d="M97.5 2.5L87 11.5L89 26.5L74 27.5L65 40L51.5 29.5H35.5L34 14L23.5 2.5" stroke="black" stroke-width="3" stroke-linecap="round" stroke-linejoin="round"/>
<path d="M81.5 2.5L76 7.5L77 16H68L63 23.5L55.5 18H46L45.5 9.5L39.5 2.5" stroke="black" stroke-width="3" stroke-linecap="round" stroke-linejoin="round"/>
</svg>
