<svg width="120" height="120" viewBox="0 0 120 120" fill="none" xmlns="http://www.w3.org/2000/svg">
<path d="M103 32.5L84.5 36L76 55L54.5 43H26.5L23 20.5L6.00002 2H115L99 15L103 32.5Z" fill="white" stroke="black" stroke-width="4" stroke-linejoin="round"/>
<path d="M86.5 90.5L60.5 2.5" stroke="black" stroke-width="3" stroke-linejoin="round"/>
<path d="M26.5 43.5L60.5 2.5" stroke="black" stroke-width="3" stroke-linejoin="round"/>
<path d="M102.5 32.5L60.5 2.5" stroke="black" stroke-width="3" stroke-linejoin="round"/>
<path d="M91.2625 84.624L82.4568 82.7644L76.5315 86.6234L74.6719 95.4292L78.5309 101.354L87.3366 103.214L93.2619 99.355L95.1215 90.5493L91.2625 84.624Z" fill="white" stroke="black" stroke-width="4" stroke-linejoin="round"/>
<path d="M94.6809 95.0555L101.171 93.36L106.422 97.535" stroke="black" stroke-width="3" stroke-linecap="round" stroke-linejoin="round"/>
<path d="M75.1125 90.923L69.8619 86.7479L63.3715 88.4434" stroke="black" stroke-width="3" stroke-linecap="round" stroke-linejoin="round"/>
<path d="M92.4627 100.719L98.3332 101.959L102.192 107.884" stroke="black" stroke-width="3" stroke-linecap="round" stroke-linejoin="round"/>
<path d="M74.8512 97.0001L68.0022 95.5537L62.077 99.4127" stroke="black" stroke-width="3" stroke-linecap="round" stroke-linejoin="round"/>
<path d="M94.3771 86.8149L99.1172 83.7277L105.966 85.1741" stroke="black" stroke-width="3" stroke-linecap="round" stroke-linejoin="round"/>
<path d="M78.7223 83.5088L75.6352 78.7687L68.7862 77.3223" stroke="black" stroke-width="3" stroke-linecap="round" stroke-linejoin="round"/>
<path d="M97.5 2.5L86.5 10.5L91 24.5L76.5 26L71 39L57 30.5H37L35 14.5L23.5 2.5" stroke="black" stroke-width="3" stroke-linecap="round" stroke-linejoin="round"/>
<path d="M81.5 2.5L75.5 7.5L78.5 15.5L70.5 16.5L67 24.5L57.5 18.5H46.5L45.5 9.5L39.5 2.5" stroke="black" stroke-width="3" stroke-linecap="round" stroke-linejoin="round"/>
</svg>
