<svg width="120" height="120" viewBox="0 0 120 120" fill="none" xmlns="http://www.w3.org/2000/svg">
<path d="M105 30.5L87 33.5L81 53L56.5 45H28.5L23 23L6 2H115L99.5 13.5L105 30.5Z" fill="white" stroke="black" stroke-width="4" stroke-linejoin="round"/>
<path d="M94 84.5L60.5 2.5" stroke="black" stroke-width="3" stroke-linejoin="round"/>
<path d="M28 45.5L60.5 2.5" stroke="black" stroke-width="3" stroke-linejoin="round"/>
<path d="M104 30L60.5 2.5" stroke="black" stroke-width="3" stroke-linejoin="round"/>
<path d="M99.1622 75.8627L90.1875 75.1879L84.8267 79.799L84.1519 88.7736L88.7629 94.1344L97.7375 94.8093L103.098 90.1982L103.773 81.2236L99.1622 75.8627Z" fill="white" stroke="black" stroke-width="4" stroke-linejoin="round"/>
<path d="M103.934 85.7484L110.142 83.2067L115.901 86.6481" stroke="black" stroke-width="3" stroke-linecap="round" stroke-linejoin="round"/>
<path d="M83.9907 84.2488L78.2325 80.8074L72.0244 83.349" stroke="black" stroke-width="3" stroke-linecap="round" stroke-linejoin="round"/>
<path d="M102.487 91.6565L108.47 92.1064L113.081 97.4672" stroke="black" stroke-width="3" stroke-linecap="round" stroke-linejoin="round"/>
<path d="M84.538 90.3069L77.5577 89.782L72.1968 94.3931" stroke="black" stroke-width="3" stroke-linecap="round" stroke-linejoin="round"/>
<path d="M102.54 77.6209L106.828 73.9321L113.809 74.457" stroke="black" stroke-width="3" stroke-linecap="round" stroke-linejoin="round"/>
<path d="M86.5849 76.4213L82.8961 72.1326L75.9158 71.6078" stroke="black" stroke-width="3" stroke-linecap="round" stroke-linejoin="round"/>
<path d="M97.5 2.5L87.5 10L92.5 22.5L79.5 24L74.5 37L58 30L38.5 31L35 15.5L23.5 2.5" stroke="black" stroke-width="3" stroke-linecap="round" stroke-linejoin="round"/>
<path d="M81.5 2.5L76 7L80.5 15H71.5L68.5 23L59 18.5L47.5 19L45 10L39.5 2.5" stroke="black" stroke-width="3" stroke-linecap="round" stroke-linejoin="round"/>
</svg>
