<svg width="120" height="120" viewBox="0 0 120 120" fill="none" xmlns="http://www.w3.org/2000/svg">
<path d="M105 30.5L87 33.5L81 53L56.5 45H28.5L23 23L6 2H115L99.5 13.5L105 30.5Z" fill="white" stroke="black" stroke-width="4" stroke-linejoin="round"/>
<path d="M94.5 82L60.5 2.5" stroke="black" stroke-width="3" stroke-linejoin="round"/>
<path d="M28 45.5L60.5 2.5" stroke="black" stroke-width="3" stroke-linejoin="round"/>
<path d="M104 30L60.5 2.5" stroke="black" stroke-width="3" stroke-linejoin="round"/>
<path d="M98.9131 72.7187L89.9229 72.3007L84.696 77.0631L84.278 86.0534L89.0404 91.2802L98.0307 91.6982L103.258 86.9358L103.676 77.9455L98.9131 72.7187Z" fill="white" stroke="black" stroke-width="4" stroke-linejoin="round"/>
<path d="M103.966 82.4639L110.099 79.7458L115.953 83.0212" stroke="black" stroke-width="3" stroke-linecap="round" stroke-linejoin="round"/>
<path d="M83.9876 81.535L78.1334 78.2596L72.0005 80.9777" stroke="black" stroke-width="3" stroke-linecap="round" stroke-linejoin="round"/>
<path d="M102.688 88.411L108.682 88.6897L113.444 93.9165" stroke="black" stroke-width="3" stroke-linecap="round" stroke-linejoin="round"/>
<path d="M84.7078 87.575L77.7154 87.2499L72.4886 92.0122" stroke="black" stroke-width="3" stroke-linecap="round" stroke-linejoin="round"/>
<path d="M102.34 74.3797L106.521 70.5698L113.514 70.8949" stroke="black" stroke-width="3" stroke-linecap="round" stroke-linejoin="round"/>
<path d="M86.357 73.6365L82.5471 69.4551L75.5546 69.13" stroke="black" stroke-width="3" stroke-linecap="round" stroke-linejoin="round"/>
<path d="M97.5 2.5L87.5 10L92.5 22.5L79.5 24L74.5 37L58 30L38.5 31L35 15.5L23.5 2.5" stroke="black" stroke-width="3" stroke-linecap="round" stroke-linejoin="round"/>
<path d="M81.5 2.5L76 7L80.5 15H71.5L68.5 23L59 18.5L47.5 19L45 10L39.5 2.5" stroke="black" stroke-width="3" stroke-linecap="round" stroke-linejoin="round"/>
</svg>
