<svg width="120" height="120" viewBox="0 0 120 120" fill="none" xmlns="http://www.w3.org/2000/svg">
<path d="M106 28L88 31.5L83.5 51.5L57.5 45.5L29.5 46.5L20.5 22.5L6 2H115L99 12L106 28Z" fill="white" stroke="black" stroke-width="4" stroke-linejoin="round"/>
<path d="M95 76L60.5 2.5" stroke="black" stroke-width="3" stroke-linejoin="round"/>
<path d="M29.5 46L60.5 2.5" stroke="black" stroke-width="3" stroke-linejoin="round"/>
<path d="M105 27.5L60.5 2.5" stroke="black" stroke-width="3" stroke-linejoin="round"/>
<path d="M99.5 68.5H90.5L85.5 73.5V82.5L90.5 87.5H99.5L104.5 82.5V73.5L99.5 68.5Z" fill="white" stroke="black" stroke-width="4" stroke-linejoin="round"/>
<path d="M105 78L111 75L117 78" stroke="black" stroke-width="3" stroke-linecap="round" stroke-linejoin="round"/>
<path d="M85 78L79 75L73 78" stroke="black" stroke-width="3" stroke-linecap="round" stroke-linejoin="round"/>
<path d="M104 84H110L115 89" stroke="black" stroke-width="3" stroke-linecap="round" stroke-linejoin="round"/>
<path d="M86 84H79L74 89" stroke="black" stroke-width="3" stroke-linecap="round" stroke-linejoin="round"/>
<path d="M103 70L107 66H114" stroke="black" stroke-width="3" stroke-linecap="round" stroke-linejoin="round"/>
<path d="M87 70L83 66H76" stroke="black" stroke-width="3" stroke-linecap="round" stroke-linejoin="round"/>
<path d="M97.5 2.5L86 9L92.5 20.5L79.5 22L77 37.5L58.5 31.5L39 32L34.5 16.5L23.5 2.5" stroke="black" stroke-width="3" stroke-linecap="round" stroke-linejoin="round"/>
<path d="M81.5 2.5L76 6L80.5 14L71 13.5L70.5 23.5L59.5 20H47.5L45 11L39.5 2.5" stroke="black" stroke-width="3" stroke-linecap="round" stroke-linejoin="round"/>
</svg>
