<svg width="120" height="120" viewBox="0 0 120 120" fill="none" xmlns="http://www.w3.org/2000/svg">
<path d="M106 28L88 31.5L83.5 51.5L57.5 45.5L29.5 46.5L20.5 22.5L6 2H115L99 12L106 28Z" fill="white" stroke="black" stroke-width="4" stroke-linejoin="round"/>
<path d="M95 74L60.5 2.5" stroke="black" stroke-width="3" stroke-linejoin="round"/>
<path d="M29.5 46L60.5 2.5" stroke="black" stroke-width="3" stroke-linejoin="round"/>
<path d="M105 27.5L60.5 2.5" stroke="black" stroke-width="3" stroke-linejoin="round"/>
<path d="M99.0844 65.304L90.0938 65.7148L85.3273 70.9378L85.7381 79.9285L90.9611 84.695L99.9518 84.2842L104.718 79.0611L104.307 70.0705L99.0844 65.304Z" fill="white" stroke="black" stroke-width="4" stroke-linejoin="round"/>
<path d="M105.012 74.543L110.869 71.2722L117 73.9952" stroke="black" stroke-width="3" stroke-linecap="round" stroke-linejoin="round"/>
<path d="M85.0332 75.456L78.9025 72.733L73.0457 76.0038" stroke="black" stroke-width="3" stroke-linecap="round" stroke-linejoin="round"/>
<path d="M104.287 80.5824L110.281 80.3085L115.504 85.075" stroke="black" stroke-width="3" stroke-linecap="round" stroke-linejoin="round"/>
<path d="M86.3061 81.4041L79.3134 81.7236L74.5469 86.9467" stroke="black" stroke-width="3" stroke-linecap="round" stroke-linejoin="round"/>
<path d="M102.649 66.6426L106.463 62.4642L113.455 62.1446" stroke="black" stroke-width="3" stroke-linecap="round" stroke-linejoin="round"/>
<path d="M86.6659 67.373L82.4875 63.5598L75.4948 63.8793" stroke="black" stroke-width="3" stroke-linecap="round" stroke-linejoin="round"/>
<path d="M97.5 2.5L86 9L92.5 20.5L79.5 22L77 37.5L58.5 31.5L39 32L34.5 16.5L23.5 2.5" stroke="black" stroke-width="3" stroke-linecap="round" stroke-linejoin="round"/>
<path d="M81.5 2.5L76 6L80.5 14L71 13.5L70.5 23.5L59.5 20H47.5L45 11L39.5 2.5" stroke="black" stroke-width="3" stroke-linecap="round" stroke-linejoin="round"/>
</svg>
