<svg width="120" height="120" viewBox="0 0 120 120" fill="none" xmlns="http://www.w3.org/2000/svg">
<path d="M105.5 26.5L87 28.5L86.5 51.5L60 48L29.5 46.5L19.5 23L6 2H115L97.5 11L105.5 26.5Z" fill="white" stroke="black" stroke-width="4" stroke-linejoin="round"/>
<path d="M97.5 2.5L85 8L93 19.5L78.5 20.5V36.5L60 33L40 32L33.5 17L23.5 2.5" stroke="black" stroke-width="3" stroke-linecap="round" stroke-linejoin="round"/>
<path d="M81.5 2.5L75 6L81 13.5L70.5 12.5L71.5 23L60.5 21L48 20L44.5 12L39.5 2.5" stroke="black" stroke-width="3" stroke-linecap="round" stroke-linejoin="round"/>
<path d="M96.5 70.5L60.5 2.5" stroke="black" stroke-width="3" stroke-linejoin="round"/>
<path d="M29.5 47L60.5 2.5" stroke="black" stroke-width="3" stroke-linejoin="round"/>
<path d="M105 26.5L60.5 2.5" stroke="black" stroke-width="3" stroke-linejoin="round"/>
<path d="M97.7014 60.8071L88.8665 62.5232L84.9116 68.3848L86.6277 77.2197L92.4893 81.1746L101.324 79.4585L105.279 73.5969L103.563 64.762L97.7014 60.8071Z" fill="white" stroke="black" stroke-width="4" stroke-linejoin="round"/>
<path d="M104.912 69.0841L110.23 64.9951L116.692 66.796" stroke="black" stroke-width="3" stroke-linecap="round" stroke-linejoin="round"/>
<path d="M85.2788 72.8976L78.8169 71.0967L73.499 75.1857" stroke="black" stroke-width="3" stroke-linecap="round" stroke-linejoin="round"/>
<path d="M105.074 75.1647L110.964 74.0206L116.826 77.9755" stroke="black" stroke-width="3" stroke-linecap="round" stroke-linejoin="round"/>
<path d="M87.4045 78.5968L80.5329 79.9315L76.578 85.7932" stroke="black" stroke-width="3" stroke-linecap="round" stroke-linejoin="round"/>
<path d="M101.423 61.6122L104.587 56.9229L111.459 55.5882" stroke="black" stroke-width="3" stroke-linecap="round" stroke-linejoin="round"/>
<path d="M85.7167 64.663L81.0274 61.4991L74.1559 62.8338" stroke="black" stroke-width="3" stroke-linecap="round" stroke-linejoin="round"/>
</svg>
