<svg width="120" height="120" viewBox="0 0 120 120" fill="none" xmlns="http://www.w3.org/2000/svg">
<path d="M105.5 26.5L87 28.5L86.5 51.5L60 48L29.5 46.5L19.5 23L6 2H115L97.5 11L105.5 26.5Z" fill="white" stroke="black" stroke-width="4" stroke-linejoin="round"/>
<path d="M97.5 2.5L85 8L93 19.5L78.5 20.5V36.5L60 33L40 32L33.5 17L23.5 2.5" stroke="black" stroke-width="3" stroke-linecap="round" stroke-linejoin="round"/>
<path d="M81.5 2.5L75 6L81 13.5L70.5 12.5L71.5 23L60.5 21L48 20L44.5 12L39.5 2.5" stroke="black" stroke-width="3" stroke-linecap="round" stroke-linejoin="round"/>
<path d="M96.5 70.5L60.5 2.5" stroke="black" stroke-width="3" stroke-linejoin="round"/>
<path d="M29.5 47L60.5 2.5" stroke="black" stroke-width="3" stroke-linejoin="round"/>
<path d="M105 26.5L60.5 2.5" stroke="black" stroke-width="3" stroke-linejoin="round"/>
<path d="M96.7974 60.5995L88.158 63.1218L84.7597 69.3227L87.282 77.962L93.4829 81.3604L102.122 78.8381L105.521 72.6372L102.998 63.9979L96.7974 60.5995Z" fill="white" stroke="black" stroke-width="4" stroke-linejoin="round"/>
<path d="M104.739 68.1774L109.658 63.6161L116.258 64.8144" stroke="black" stroke-width="3" stroke-linecap="round" stroke-linejoin="round"/>
<path d="M85.5408 73.7825L78.9405 72.5842L74.0217 77.1456" stroke="black" stroke-width="3" stroke-linecap="round" stroke-linejoin="round"/>
<path d="M105.461 74.2172L111.22 72.5357L117.421 75.9341" stroke="black" stroke-width="3" stroke-linecap="round" stroke-linejoin="round"/>
<path d="M88.1823 79.2618L81.4628 81.2236L78.0645 87.4245" stroke="black" stroke-width="3" stroke-linecap="round" stroke-linejoin="round"/>
<path d="M100.577 61.0585L103.296 56.0978L110.016 54.136" stroke="black" stroke-width="3" stroke-linecap="round" stroke-linejoin="round"/>
<path d="M85.2187 65.5426L80.258 62.8239L73.5385 64.7857" stroke="black" stroke-width="3" stroke-linecap="round" stroke-linejoin="round"/>
</svg>
