<svg width="120" height="120" viewBox="0 0 120 120" fill="none" xmlns="http://www.w3.org/2000/svg">
<path d="M105.5 26.5L87 28.5L86.5 51.5L60 48L29.5 46.5L19.5 23L6 2H115L97.5 11L105.5 26.5Z" fill="white" stroke="black" stroke-width="4" stroke-linejoin="round"/>
<path d="M97.5 2.5L85 8L93 19.5L78.5 20.5V36.5L60 33L40 32L33.5 17L23.5 2.5" stroke="black" stroke-width="3" stroke-linecap="round" stroke-linejoin="round"/>
<path d="M81.5 2.5L75 6L81 13.5L70.5 12.5L71.5 23L60.5 21L48 20L44.5 12L39.5 2.5" stroke="black" stroke-width="3" stroke-linecap="round" stroke-linejoin="round"/>
<path d="M96.5 70.5L60.5 2.5" stroke="black" stroke-width="3" stroke-linejoin="round"/>
<path d="M29.5 47L60.5 2.5" stroke="black" stroke-width="3" stroke-linejoin="round"/>
<path d="M105 26.5L60.5 2.5" stroke="black" stroke-width="3" stroke-linejoin="round"/>
<path d="M95.8545 60.474L87.492 63.8008L84.6943 70.2948L88.021 78.6574L94.515 81.4551L102.878 78.1284L105.675 71.6343L102.349 63.2718L95.8545 60.474Z" fill="white" stroke="black" stroke-width="4" stroke-linejoin="round"/>
<path d="M104.477 67.2682L108.943 62.2629L115.627 62.8326" stroke="black" stroke-width="3" stroke-linecap="round" stroke-linejoin="round"/>
<path d="M85.893 74.661L79.209 74.0912L74.7428 79.0966" stroke="black" stroke-width="3" stroke-linecap="round" stroke-linejoin="round"/>
<path d="M105.765 73.2129L111.34 70.9951L117.834 73.7928" stroke="black" stroke-width="3" stroke-linecap="round" stroke-linejoin="round"/>
<path d="M89.04 79.8664L82.5358 82.4538L79.7381 88.9479" stroke="black" stroke-width="3" stroke-linecap="round" stroke-linejoin="round"/>
<path d="M99.661 60.5741L101.899 55.3788L108.403 52.7914" stroke="black" stroke-width="3" stroke-linecap="round" stroke-linejoin="round"/>
<path d="M84.7942 66.4883L79.599 64.2501L73.0947 66.8376" stroke="black" stroke-width="3" stroke-linecap="round" stroke-linejoin="round"/>
</svg>
