<svg width="120" height="120" viewBox="0 0 120 120" fill="none" xmlns="http://www.w3.org/2000/svg">
<path d="M106 28L88 31.5L83.5 51.5L57.5 45.5L29.5 46.5L20.5 22.5L6 2H115L99 12L106 28Z" fill="white" stroke="black" stroke-width="4" stroke-linejoin="round"/>
<path d="M95 74L60.5 2.5" stroke="black" stroke-width="3" stroke-linejoin="round"/>
<path d="M29.5 46L60.5 2.5" stroke="black" stroke-width="3" stroke-linejoin="round"/>
<path d="M105 27.5L60.5 2.5" stroke="black" stroke-width="3" stroke-linejoin="round"/>
<path d="M95.889 64.477L87.515 67.775L84.695 74.2594L87.9929 82.6334L94.4773 85.4534L102.851 82.1555L105.671 75.6711L102.373 67.2971L95.889 64.477Z" fill="white" stroke="black" stroke-width="4" stroke-linejoin="round"/>
<path d="M104.488 71.3009L108.971 66.3109L115.653 66.9036" stroke="black" stroke-width="3" stroke-linecap="round" stroke-linejoin="round"/>
<path d="M85.8787 78.6296L79.1968 78.0369L74.7134 83.0268" stroke="black" stroke-width="3" stroke-linecap="round" stroke-linejoin="round"/>
<path d="M105.756 77.2499L111.338 75.0513L117.823 77.8714" stroke="black" stroke-width="3" stroke-linecap="round" stroke-linejoin="round"/>
<path d="M89.0078 83.8458L82.4947 86.4109L79.6747 92.8953" stroke="black" stroke-width="3" stroke-linecap="round" stroke-linejoin="round"/>
<path d="M99.6952 64.5902L101.951 59.4027L108.464 56.8376" stroke="black" stroke-width="3" stroke-linecap="round" stroke-linejoin="round"/>
<path d="M84.8082 70.4532L79.6206 68.1971L73.1075 70.7622" stroke="black" stroke-width="3" stroke-linecap="round" stroke-linejoin="round"/>
<path d="M97.5 2.5L86 9L92.5 20.5L79.5 22L77 37.5L58.5 31.5L39 32L34.5 16.5L23.5 2.5" stroke="black" stroke-width="3" stroke-linecap="round" stroke-linejoin="round"/>
<path d="M81.5 2.5L76 6L80.5 14L71 13.5L70.5 23.5L59.5 20H47.5L45 11L39.5 2.5" stroke="black" stroke-width="3" stroke-linecap="round" stroke-linejoin="round"/>
</svg>
