<svg width="120" height="120" viewBox="0 0 120 120" fill="none" xmlns="http://www.w3.org/2000/svg">
<path d="M106 28L88 31.5L83.5 51.5L57.5 45.5L29.5 46.5L20.5 22.5L6 2H115L99 12L106 28Z" fill="white" stroke="black" stroke-width="4" stroke-linejoin="round"/>
<path d="M95 76L60.5 2.5" stroke="black" stroke-width="3" stroke-linejoin="round"/>
<path d="M29.5 46L60.5 2.5" stroke="black" stroke-width="3" stroke-linejoin="round"/>
<path d="M105 27.5L60.5 2.5" stroke="black" stroke-width="3" stroke-linejoin="round"/>
<path d="M97.5 2.5L86 9L92.5 20.5L79.5 22L77 37.5L58.5 31.5L39 32L34.5 16.5L23.5 2.5" stroke="black" stroke-width="3" stroke-linecap="round" stroke-linejoin="round"/>
<path d="M81.5 2.5L76 6L80.5 14L71 13.5L70.5 23.5L59.5 20H47.5L45 11L39.5 2.5" stroke="black" stroke-width="3" stroke-linecap="round" stroke-linejoin="round"/>
<path d="M94.423 67.4543L86.6172 71.9342L84.7695 78.7596L89.2494 86.5654L96.0748 88.4131L103.881 83.9331L105.728 77.1077L101.248 69.3019L94.423 67.4543Z" fill="white" stroke="black" stroke-width="4" stroke-linejoin="round"/>
<path d="M103.922 72.9559L107.632 67.3674L114.33 66.9827" stroke="black" stroke-width="3" stroke-linecap="round" stroke-linejoin="round"/>
<path d="M86.5758 82.9114L79.8787 83.2961L76.1681 88.8846" stroke="black" stroke-width="3" stroke-linecap="round" stroke-linejoin="round"/>
<path d="M106.041 78.6576L111.245 75.6709L118.071 77.5186" stroke="black" stroke-width="3" stroke-linecap="round" stroke-linejoin="round"/>
<path d="M90.4297 87.6174L84.3585 91.1019L82.5109 97.9273" stroke="black" stroke-width="3" stroke-linecap="round" stroke-linejoin="round"/>
<path d="M98.2052 67.013L99.6833 61.5527L105.754 58.0683" stroke="black" stroke-width="3" stroke-linecap="round" stroke-linejoin="round"/>
<path d="M84.3282 74.9774L78.8679 73.4992L72.7968 76.9836" stroke="black" stroke-width="3" stroke-linecap="round" stroke-linejoin="round"/>
</svg>
