<svg width="120" height="120" viewBox="0 0 120 120" fill="none" xmlns="http://www.w3.org/2000/svg">
<path d="M105 30.5L87 33.5L81 53L56.5 45H28.5L23 23L6 2H115L99.5 13.5L105 30.5Z" fill="white" stroke="black" stroke-width="4" stroke-linejoin="round"/>
<path d="M94.5 82L60.5 2.5" stroke="black" stroke-width="3" stroke-linejoin="round"/>
<path d="M28 45.5L60.5 2.5" stroke="black" stroke-width="3" stroke-linejoin="round"/>
<path d="M104 30L60.5 2.5" stroke="black" stroke-width="3" stroke-linejoin="round"/>
<path d="M93.3638 71.4578L85.5845 75.9836L83.777 82.8198L88.3029 90.5991L95.139 92.4065L102.918 87.8807L104.726 81.0446L100.2 73.2653L93.3638 71.4578Z" fill="white" stroke="black" stroke-width="4" stroke-linejoin="round"/>
<path d="M102.895 76.9035L106.573 71.2932L113.267 70.8691" stroke="black" stroke-width="3" stroke-linecap="round" stroke-linejoin="round"/>
<path d="M85.6078 86.9609L78.9131 87.385L75.2355 92.9953" stroke="black" stroke-width="3" stroke-linecap="round" stroke-linejoin="round"/>
<path d="M105.048 82.5925L110.234 79.5753L117.07 81.3828" stroke="black" stroke-width="3" stroke-linecap="round" stroke-linejoin="round"/>
<path d="M89.4894 91.6442L83.4388 95.1643L81.6314 102" stroke="black" stroke-width="3" stroke-linecap="round" stroke-linejoin="round"/>
<path d="M97.1434 70.9943L98.5894 65.5254L104.64 62.0053" stroke="black" stroke-width="3" stroke-linecap="round" stroke-linejoin="round"/>
<path d="M83.3136 79.0402L77.8447 77.5943L71.7941 81.1143" stroke="black" stroke-width="3" stroke-linecap="round" stroke-linejoin="round"/>
<path d="M97.5 2.5L87.5 10L92.5 22.5L79.5 24L74.5 37L58 30L38.5 31L35 15.5L23.5 2.5" stroke="black" stroke-width="3" stroke-linecap="round" stroke-linejoin="round"/>
<path d="M81.5 2.5L76 7L80.5 15H71.5L68.5 23L59 18.5L47.5 19L45 10L39.5 2.5" stroke="black" stroke-width="3" stroke-linecap="round" stroke-linejoin="round"/>
</svg>
