<svg width="120" height="120" viewBox="0 0 120 120" fill="none" xmlns="http://www.w3.org/2000/svg">
<path d="M105 30.5L87 33.5L81 53L56.5 45H28.5L23 23L6 2H115L99.5 13.5L105 30.5Z" fill="white" stroke="black" stroke-width="4" stroke-linejoin="round"/>
<path d="M94 84.5L60.5 2.5" stroke="black" stroke-width="3" stroke-linejoin="round"/>
<path d="M28 45.5L60.5 2.5" stroke="black" stroke-width="3" stroke-linejoin="round"/>
<path d="M104 30L60.5 2.5" stroke="black" stroke-width="3" stroke-linejoin="round"/>
<path d="M97.5 2.5L87.5 10L92.5 22.5L79.5 24L74.5 37L58 30L38.5 31L35 15.5L23.5 2.5" stroke="black" stroke-width="3" stroke-linecap="round" stroke-linejoin="round"/>
<path d="M81.5 2.5L76 7L80.5 15H71.5L68.5 23L59 18.5L47.5 19L45 10L39.5 2.5" stroke="black" stroke-width="3" stroke-linecap="round" stroke-linejoin="round"/>
<path d="M93.5963 74.4458L85.7144 78.7904L83.7492 85.5829L88.0938 93.4648L94.8863 95.43L102.768 91.0854L104.733 84.2929L100.389 76.411L93.5963 74.4458Z" fill="white" stroke="black" stroke-width="4" stroke-linejoin="round"/>
<path d="M102.999 80.1106L106.805 74.5869L113.508 74.3178" stroke="black" stroke-width="3" stroke-linecap="round" stroke-linejoin="round"/>
<path d="M85.4836 89.7652L78.7808 90.0343L74.9744 95.558" stroke="black" stroke-width="3" stroke-linecap="round" stroke-linejoin="round"/>
<path d="M105.02 85.8479L110.274 82.9515L117.067 84.9167" stroke="black" stroke-width="3" stroke-linecap="round" stroke-linejoin="round"/>
<path d="M89.2559 94.5371L83.1255 97.9162L81.1603 104.709" stroke="black" stroke-width="3" stroke-linecap="round" stroke-linejoin="round"/>
<path d="M97.3856 74.0699L98.9578 68.6359L105.088 65.2568" stroke="black" stroke-width="3" stroke-linecap="round" stroke-linejoin="round"/>
<path d="M83.3733 81.7936L77.9393 80.2214L71.8089 83.6006" stroke="black" stroke-width="3" stroke-linecap="round" stroke-linejoin="round"/>
</svg>
