<svg width="120" height="120" viewBox="0 0 120 120" fill="none" xmlns="http://www.w3.org/2000/svg">
<path d="M103 32.5L84.5 36L76 55L54.5 43H26.5L23 20.5L6 2H115L99 15L103 32.5Z" fill="white" stroke="black" stroke-width="4" stroke-linejoin="round"/>
<path d="M86.5 90.5L60.5 2.5" stroke="black" stroke-width="3" stroke-linejoin="round"/>
<path d="M26.5 43.5L60.5 2.5" stroke="black" stroke-width="3" stroke-linejoin="round"/>
<path d="M102.5 32.5L60.5 2.5" stroke="black" stroke-width="3" stroke-linejoin="round"/>
<path d="M97.5 2.5L86.5 10.5L91 24.5L76.5 26L71 39L57 30.5H37L35 14.5L23.5 2.5" stroke="black" stroke-width="3" stroke-linecap="round" stroke-linejoin="round"/>
<path d="M81.5 2.5L75.5 7.5L78.5 15.5L70.5 16.5L67 24.5L57.5 18.5H46.5L45.5 9.5L39.5 2.5" stroke="black" stroke-width="3" stroke-linecap="round" stroke-linejoin="round"/>
<path d="M86.1536 82.504L77.6953 85.5795L74.7049 91.9871L77.7804 100.445L84.188 103.436L92.6462 100.36L95.6366 93.9527L92.5612 85.4945L86.1536 82.504Z" fill="white" stroke="black" stroke-width="4" stroke-linejoin="round"/>
<path d="M94.5689 89.5527L99.1825 84.683L105.846 85.4521" stroke="black" stroke-width="3" stroke-linecap="round" stroke-linejoin="round"/>
<path d="M75.7728 96.3871L69.1089 95.618L64.4952 100.488" stroke="black" stroke-width="3" stroke-linecap="round" stroke-linejoin="round"/>
<path d="M95.6793 95.5332L101.318 93.4829L107.726 96.4733" stroke="black" stroke-width="3" stroke-linecap="round" stroke-linejoin="round"/>
<path d="M78.7629 101.684L72.1843 104.076L69.1939 110.484" stroke="black" stroke-width="3" stroke-linecap="round" stroke-linejoin="round"/>
<path d="M89.9555 82.7177L92.3478 77.5916L98.9264 75.1996" stroke="black" stroke-width="3" stroke-linecap="round" stroke-linejoin="round"/>
<path d="M74.9186 88.1852L69.7925 85.7929L63.2139 88.1849" stroke="black" stroke-width="3" stroke-linecap="round" stroke-linejoin="round"/>
</svg>
