<svg width="120" height="120" viewBox="0 0 120 120" fill="none" xmlns="http://www.w3.org/2000/svg">
<path d="M101 36L80 38.5L67 55.5L47.5 40.5L24.5 41.5L21.5 18.5L6 2H115L99.5 15.5L101 36Z" fill="white" stroke="black" stroke-width="4" stroke-linejoin="round"/>
<path d="M73 100.5L60.5 2.5" stroke="black" stroke-width="3" stroke-linejoin="round"/>
<path d="M24 42L60.5 2.5" stroke="black" stroke-width="3" stroke-linejoin="round"/>
<path d="M100.5 35L60.5 2.5" stroke="black" stroke-width="3" stroke-linejoin="round"/>
<path d="M97.5 2.5L87 11.5L89 26.5L74 27.5L65 40L51.5 29.5H35.5L34 14L23.5 2.5" stroke="black" stroke-width="3" stroke-linecap="round" stroke-linejoin="round"/>
<path d="M81.5 2.5L76 7.5L77 16H68L63 23.5L55.5 18H46L45.5 9.5L39.5 2.5" stroke="black" stroke-width="3" stroke-linecap="round" stroke-linejoin="round"/>
<path d="M74.5513 87.3776L65.9772 90.1133L62.7336 96.3965L65.4693 104.971L71.7525 108.214L80.3266 105.479L83.5702 99.1954L80.8345 90.6212L74.5513 87.3776Z" fill="white" stroke="black" stroke-width="4" stroke-linejoin="round"/>
<path d="M82.6787 94.7563L87.4829 90.0744L94.1109 91.1087" stroke="black" stroke-width="3" stroke-linecap="round" stroke-linejoin="round"/>
<path d="M63.625 100.836L56.997 99.8013L52.1928 104.483" stroke="black" stroke-width="3" stroke-linecap="round" stroke-linejoin="round"/>
<path d="M83.5498 100.776L89.2659 98.9526L95.5491 102.196" stroke="black" stroke-width="3" stroke-linecap="round" stroke-linejoin="round"/>
<path d="M66.4015 106.248L59.7327 108.375L56.4891 114.659" stroke="black" stroke-width="3" stroke-linecap="round" stroke-linejoin="round"/>
<path d="M78.3416 87.7428L80.9365 82.7162L87.6052 80.5884" stroke="black" stroke-width="3" stroke-linecap="round" stroke-linejoin="round"/>
<path d="M63.0987 92.6062L58.0721 90.0113L51.4033 92.1391" stroke="black" stroke-width="3" stroke-linecap="round" stroke-linejoin="round"/>
</svg>
