<svg width="120" height="120" viewBox="0 0 120 120" fill="none" xmlns="http://www.w3.org/2000/svg">
<path d="M23 40H45L60 55H61L76 40H98V19L115 2H5.99999L23 19V40Z" fill="white" stroke="black" stroke-width="4" stroke-linejoin="round"/>
<path d="M60.5 105.5V2.5" stroke="black" stroke-width="3" stroke-linejoin="round"/>
<path d="M97.5 39.5L60.5 2.5" stroke="black" stroke-width="3" stroke-linejoin="round"/>
<path d="M23.5 39.5L60.5 2.5" stroke="black" stroke-width="3" stroke-linejoin="round"/>
<path d="M52.6594 92.3138L60.841 88.564L67.4696 91.0261L71.2194 99.2077L68.7573 105.836L60.5756 109.586L53.9471 107.124L50.1973 98.9424L52.6594 92.3138Z" fill="white" stroke="black" stroke-width="4" stroke-linejoin="round"/>
<path d="M51.6176 103.241L44.9133 103.014L40.7088 108.241" stroke="black" stroke-width="3" stroke-linecap="round" stroke-linejoin="round"/>
<path d="M69.799 94.9086L74.0035 89.6815L80.7078 89.9088" stroke="black" stroke-width="3" stroke-linecap="round" stroke-linejoin="round"/>
<path d="M55.0266 108.279L49.5722 110.779L47.11 117.408" stroke="black" stroke-width="3" stroke-linecap="round" stroke-linejoin="round"/>
<path d="M71.3898 100.78L77.7533 97.8631L84.3819 100.325" stroke="black" stroke-width="3" stroke-linecap="round" stroke-linejoin="round"/>
<path d="M50.1026 95.1356L44.7997 93.1659L38.4363 96.0825" stroke="black" stroke-width="3" stroke-linecap="round" stroke-linejoin="round"/>
<path d="M64.6477 88.4693L66.6174 83.1665L72.9809 80.2499" stroke="black" stroke-width="3" stroke-linecap="round" stroke-linejoin="round"/>
<path d="M23.5 2.5L34.5 13.5V28.5H49.5L60.5 39.5L71.5 28.5H86.5V13.5L97.5 2.5" stroke="black" stroke-width="3" stroke-linecap="round" stroke-linejoin="round"/>
<path d="M39.5 2.5L45.5 8.5V17.5H54.5L60.5 23.5L66.5 17.5H75.5V8.5L81.5 2.5" stroke="black" stroke-width="3" stroke-linecap="round" stroke-linejoin="round"/>
</svg>
