<svg width="120" height="120" viewBox="0 0 120 120" fill="none" xmlns="http://www.w3.org/2000/svg">
<path d="M20 36L41 38.5L54 55.5L73.5 40.5L96.5 41.5L99.5 18.5L115 2H5.99999L21.5 15.5L20 36Z" fill="white" stroke="black" stroke-width="4" stroke-linejoin="round"/>
<path d="M48 100.5L60.5 2.5" stroke="black" stroke-width="3" stroke-linejoin="round"/>
<path d="M97 42L60.5 2.5" stroke="black" stroke-width="3" stroke-linejoin="round"/>
<path d="M20.5 35L60.5 2.5" stroke="black" stroke-width="3" stroke-linejoin="round"/>
<path d="M41.8744 89.3367L50.711 87.6294L56.5687 91.5901L58.276 100.427L54.3153 106.284L45.4787 107.992L39.621 104.031L37.9137 95.1944L41.8744 89.3367Z" fill="white" stroke="black" stroke-width="4" stroke-linejoin="round"/>
<path d="M38.2764 99.7075L31.8163 97.9002L26.4943 101.984" stroke="black" stroke-width="3" stroke-linecap="round" stroke-linejoin="round"/>
<path d="M57.9133 95.9135L63.2352 91.8298L69.6954 93.6371" stroke="black" stroke-width="3" stroke-linecap="round" stroke-linejoin="round"/>
<path d="M40.3965 105.409L34.5054 106.547L30.5447 112.405" stroke="black" stroke-width="3" stroke-linecap="round" stroke-linejoin="round"/>
<path d="M58.0696 101.994L64.9425 100.666L70.8003 104.627" stroke="black" stroke-width="3" stroke-linecap="round" stroke-linejoin="round"/>
<path d="M38.7225 91.4734L34.0363 88.3048L27.1634 89.6328" stroke="black" stroke-width="3" stroke-linecap="round" stroke-linejoin="round"/>
<path d="M54.432 88.4382L57.6005 83.752L64.4734 82.4241" stroke="black" stroke-width="3" stroke-linecap="round" stroke-linejoin="round"/>
<path d="M23.5 2.5L34 11.5L32 26.5L47 27.5L56 40L69.5 29.5H85.5L87 14L97.5 2.5" stroke="black" stroke-width="3" stroke-linecap="round" stroke-linejoin="round"/>
<path d="M39.5 2.5L45 7.5L44 16H53L58 23.5L65.5 18H75L75.5 9.5L81.5 2.5" stroke="black" stroke-width="3" stroke-linecap="round" stroke-linejoin="round"/>
</svg>
