<svg width="120" height="120" viewBox="0 0 120 120" fill="none" xmlns="http://www.w3.org/2000/svg">
<path d="M18 32.5L36.5 36L45 55L66.5 43H94.5L98 20.5L115 2H5.99998L22 15L18 32.5Z" fill="white" stroke="black" stroke-width="4" stroke-linejoin="round"/>
<path d="M34.5 90.5L60.5 2.5" stroke="black" stroke-width="3" stroke-linejoin="round"/>
<path d="M94.5 43.5L60.5 2.5" stroke="black" stroke-width="3" stroke-linejoin="round"/>
<path d="M18.5 32.5L60.5 2.5" stroke="black" stroke-width="3" stroke-linejoin="round"/>
<path d="M29.7375 84.624L38.5432 82.7644L44.4685 86.6234L46.3281 95.4292L42.4691 101.354L33.6634 103.214L27.7381 99.355L25.8785 90.5493L29.7375 84.624Z" fill="white" stroke="black" stroke-width="4" stroke-linejoin="round"/>
<path d="M26.3191 95.0555L19.8287 93.36L14.5781 97.535" stroke="black" stroke-width="3" stroke-linecap="round" stroke-linejoin="round"/>
<path d="M45.8875 90.923L51.1381 86.7479L57.6285 88.4435" stroke="black" stroke-width="3" stroke-linecap="round" stroke-linejoin="round"/>
<path d="M28.5373 100.719L22.6668 101.959L18.8078 107.884" stroke="black" stroke-width="3" stroke-linecap="round" stroke-linejoin="round"/>
<path d="M46.1488 97.0001L52.9978 95.5537L58.923 99.4127" stroke="black" stroke-width="3" stroke-linecap="round" stroke-linejoin="round"/>
<path d="M26.6229 86.8148L21.8828 83.7277L15.0338 85.1741" stroke="black" stroke-width="3" stroke-linecap="round" stroke-linejoin="round"/>
<path d="M42.2777 83.5088L45.3648 78.7687L52.2138 77.3223" stroke="black" stroke-width="3" stroke-linecap="round" stroke-linejoin="round"/>
<path d="M23.5 2.5L34.5 10.5L30 24.5L44.5 26L50 39L64 30.5H84L86 14.5L97.5 2.5" stroke="black" stroke-width="3" stroke-linecap="round" stroke-linejoin="round"/>
<path d="M39.5 2.5L45.5 7.5L42.5 15.5L50.5 16.5L54 24.5L63.5 18.5H74.5L75.5 9.5L81.5 2.5" stroke="black" stroke-width="3" stroke-linecap="round" stroke-linejoin="round"/>
</svg>
