<svg width="120" height="120" viewBox="0 0 120 120" fill="none" xmlns="http://www.w3.org/2000/svg">
<path d="M16 30.5L34 33.5L40 53L64.5 45H92.5L98 23L115 2H6L21.5 13.5L16 30.5Z" fill="white" stroke="black" stroke-width="4" stroke-linejoin="round"/>
<path d="M27 84.5L60.5 2.5" stroke="black" stroke-width="3" stroke-linejoin="round"/>
<path d="M93 45.5L60.5 2.5" stroke="black" stroke-width="3" stroke-linejoin="round"/>
<path d="M17 30L60.5 2.5" stroke="black" stroke-width="3" stroke-linejoin="round"/>
<path d="M21.8378 75.8627L30.8125 75.1879L36.1733 79.7989L36.8481 88.7736L32.2371 94.1344L23.2625 94.8093L17.9016 90.1982L17.2268 81.2236L21.8378 75.8627Z" fill="white" stroke="black" stroke-width="4" stroke-linejoin="round"/>
<path d="M17.0656 85.7484L10.8576 83.2067L5.09942 86.6481" stroke="black" stroke-width="3" stroke-linecap="round" stroke-linejoin="round"/>
<path d="M37.0093 84.2488L42.7675 80.8074L48.9756 83.349" stroke="black" stroke-width="3" stroke-linecap="round" stroke-linejoin="round"/>
<path d="M18.5127 91.6565L12.5296 92.1064L7.91856 97.4672" stroke="black" stroke-width="3" stroke-linecap="round" stroke-linejoin="round"/>
<path d="M36.462 90.3069L43.4423 89.782L48.8032 94.3931" stroke="black" stroke-width="3" stroke-linecap="round" stroke-linejoin="round"/>
<path d="M18.4602 77.6209L14.1715 73.9321L7.19121 74.457" stroke="black" stroke-width="3" stroke-linecap="round" stroke-linejoin="round"/>
<path d="M34.4151 76.4213L38.1039 72.1326L45.0842 71.6077" stroke="black" stroke-width="3" stroke-linecap="round" stroke-linejoin="round"/>
<path d="M23.5 2.5L33.5 10L28.5 22.5L41.5 24L46.5 37L63 30L82.5 31L86 15.5L97.5 2.5" stroke="black" stroke-width="3" stroke-linecap="round" stroke-linejoin="round"/>
<path d="M39.5 2.5L45 7L40.5 15H49.5L52.5 23L62 18.5L73.5 19L76 10L81.5 2.5" stroke="black" stroke-width="3" stroke-linecap="round" stroke-linejoin="round"/>
</svg>
