<svg width="120" height="120" viewBox="0 0 120 120" fill="none" xmlns="http://www.w3.org/2000/svg">
<path d="M16 30.5L34 33.5L40 53L64.5 45H92.5L98 23L115 2H6L21.5 13.5L16 30.5Z" fill="white" stroke="black" stroke-width="4" stroke-linejoin="round"/>
<path d="M26.5 82L60.5 2.5" stroke="black" stroke-width="3" stroke-linejoin="round"/>
<path d="M93 45.5L60.5 2.5" stroke="black" stroke-width="3" stroke-linejoin="round"/>
<path d="M17 30L60.5 2.5" stroke="black" stroke-width="3" stroke-linejoin="round"/>
<path d="M22.0869 72.7187L31.0771 72.3007L36.304 77.0631L36.722 86.0534L31.9596 91.2802L22.9693 91.6982L17.7425 86.9358L17.3245 77.9456L22.0869 72.7187Z" fill="white" stroke="black" stroke-width="4" stroke-linejoin="round"/>
<path d="M17.034 82.4639L10.9012 79.7458L5.04697 83.0212" stroke="black" stroke-width="3" stroke-linecap="round" stroke-linejoin="round"/>
<path d="M37.0124 81.535L42.8666 78.2596L48.9995 80.9777" stroke="black" stroke-width="3" stroke-linecap="round" stroke-linejoin="round"/>
<path d="M18.3116 88.411L12.3181 88.6897L7.55568 93.9165" stroke="black" stroke-width="3" stroke-linecap="round" stroke-linejoin="round"/>
<path d="M36.2922 87.575L43.2846 87.2499L48.5114 92.0123" stroke="black" stroke-width="3" stroke-linecap="round" stroke-linejoin="round"/>
<path d="M18.6603 74.3797L14.4788 70.5698L7.48639 70.8949" stroke="black" stroke-width="3" stroke-linecap="round" stroke-linejoin="round"/>
<path d="M34.643 73.6365L38.4529 69.4551L45.4454 69.13" stroke="black" stroke-width="3" stroke-linecap="round" stroke-linejoin="round"/>
<path d="M23.5 2.5L33.5 10L28.5 22.5L41.5 24L46.5 37L63 30L82.5 31L86 15.5L97.5 2.5" stroke="black" stroke-width="3" stroke-linecap="round" stroke-linejoin="round"/>
<path d="M39.5 2.5L45 7L40.5 15H49.5L52.5 23L62 18.5L73.5 19L76 10L81.5 2.5" stroke="black" stroke-width="3" stroke-linecap="round" stroke-linejoin="round"/>
</svg>
