<svg width="120" height="120" viewBox="0 0 120 120" fill="none" xmlns="http://www.w3.org/2000/svg">
<path d="M15 28L33 31.5L37.5 51.5L63.5 45.5L91.5 46.5L100.5 22.5L115 2H6L22 12L15 28Z" fill="white" stroke="black" stroke-width="4" stroke-linejoin="round"/>
<path d="M26 76L60.5 2.5" stroke="black" stroke-width="3" stroke-linejoin="round"/>
<path d="M91.5 46L60.5 2.5" stroke="black" stroke-width="3" stroke-linejoin="round"/>
<path d="M16 27.5L60.5 2.5" stroke="black" stroke-width="3" stroke-linejoin="round"/>
<path d="M21.5 68.5H30.5L35.5 73.5V82.5L30.5 87.5H21.5L16.5 82.5V73.5L21.5 68.5Z" fill="white" stroke="black" stroke-width="4" stroke-linejoin="round"/>
<path d="M16 78L10 75L4 78" stroke="black" stroke-width="3" stroke-linecap="round" stroke-linejoin="round"/>
<path d="M36 78L42 75L48 78" stroke="black" stroke-width="3" stroke-linecap="round" stroke-linejoin="round"/>
<path d="M17 84H11L6 89" stroke="black" stroke-width="3" stroke-linecap="round" stroke-linejoin="round"/>
<path d="M35 84H42L47 89" stroke="black" stroke-width="3" stroke-linecap="round" stroke-linejoin="round"/>
<path d="M18 70L14 66H7" stroke="black" stroke-width="3" stroke-linecap="round" stroke-linejoin="round"/>
<path d="M34 70L38 66H45" stroke="black" stroke-width="3" stroke-linecap="round" stroke-linejoin="round"/>
<path d="M23.5 2.5L35 9L28.5 20.5L41.5 22L44 37.5L62.5 31.5L82 32L86.5 16.5L97.5 2.5" stroke="black" stroke-width="3" stroke-linecap="round" stroke-linejoin="round"/>
<path d="M39.5 2.5L45 6L40.5 14L50 13.5L50.5 23.5L61.5 20H73.5L76 11L81.5 2.5" stroke="black" stroke-width="3" stroke-linecap="round" stroke-linejoin="round"/>
</svg>
