<svg width="120" height="120" viewBox="0 0 120 120" fill="none" xmlns="http://www.w3.org/2000/svg">
<path d="M15 28L33 31.5L37.5 51.5L63.5 45.5L91.5 46.5L100.5 22.5L115 2H6L22 12L15 28Z" fill="white" stroke="black" stroke-width="4" stroke-linejoin="round"/>
<path d="M26 74L60.5 2.5" stroke="black" stroke-width="3" stroke-linejoin="round"/>
<path d="M91.5 46L60.5 2.5" stroke="black" stroke-width="3" stroke-linejoin="round"/>
<path d="M16 27.5L60.5 2.5" stroke="black" stroke-width="3" stroke-linejoin="round"/>
<path d="M21.9156 65.304L30.9062 65.7148L35.6727 70.9379L35.2619 79.9285L30.0389 84.695L21.0482 84.2842L16.2817 79.0611L16.6926 70.0705L21.9156 65.304Z" fill="white" stroke="black" stroke-width="4" stroke-linejoin="round"/>
<path d="M15.9876 74.543L10.1308 71.2722L4.00013 73.9952" stroke="black" stroke-width="3" stroke-linecap="round" stroke-linejoin="round"/>
<path d="M35.9668 75.456L42.0975 72.733L47.9543 76.0038" stroke="black" stroke-width="3" stroke-linecap="round" stroke-linejoin="round"/>
<path d="M16.7127 80.5824L10.719 80.3085L5.49592 85.075" stroke="black" stroke-width="3" stroke-linecap="round" stroke-linejoin="round"/>
<path d="M34.6939 81.4041L41.6866 81.7236L46.4531 86.9467" stroke="black" stroke-width="3" stroke-linecap="round" stroke-linejoin="round"/>
<path d="M18.3507 66.6426L14.5375 62.4642L7.54479 62.1446" stroke="black" stroke-width="3" stroke-linecap="round" stroke-linejoin="round"/>
<path d="M34.3341 67.373L38.5125 63.5598L45.5052 63.8793" stroke="black" stroke-width="3" stroke-linecap="round" stroke-linejoin="round"/>
<path d="M23.5 2.5L35 9L28.5 20.5L41.5 22L44 37.5L62.5 31.5L82 32L86.5 16.5L97.5 2.5" stroke="black" stroke-width="3" stroke-linecap="round" stroke-linejoin="round"/>
<path d="M39.5 2.5L45 6L40.5 14L50 13.5L50.5 23.5L61.5 20H73.5L76 11L81.5 2.5" stroke="black" stroke-width="3" stroke-linecap="round" stroke-linejoin="round"/>
</svg>
