<svg width="120" height="120" viewBox="0 0 120 120" fill="none" xmlns="http://www.w3.org/2000/svg">
<path d="M15.5 26.5L34 28.5L34.5 51.5L61 48L91.5 46.5L101.5 23L115 2H6L23.5 11L15.5 26.5Z" fill="white" stroke="black" stroke-width="4" stroke-linejoin="round"/>
<path d="M23.5 2.5L36 8L28 19.5L42.5 20.5V36.5L61 33L81 32L87.5 17L97.5 2.5" stroke="black" stroke-width="3" stroke-linecap="round" stroke-linejoin="round"/>
<path d="M39.5 2.5L46 6L40 13.5L50.5 12.5L49.5 23L60.5 21L73 20L76.5 12L81.5 2.5" stroke="black" stroke-width="3" stroke-linecap="round" stroke-linejoin="round"/>
<path d="M24.5 70.5L60.5 2.5" stroke="black" stroke-width="3" stroke-linejoin="round"/>
<path d="M91.5 47L60.5 2.5" stroke="black" stroke-width="3" stroke-linejoin="round"/>
<path d="M16 26.5L60.5 2.5" stroke="black" stroke-width="3" stroke-linejoin="round"/>
<path d="M23.2986 60.8071L32.1335 62.5232L36.0884 68.3848L34.3723 77.2197L28.5107 81.1746L19.6758 79.4585L15.7209 73.5969L17.437 64.762L23.2986 60.8071Z" fill="white" stroke="black" stroke-width="4" stroke-linejoin="round"/>
<path d="M16.0881 69.0841L10.7702 64.9951L4.30829 66.796" stroke="black" stroke-width="3" stroke-linecap="round" stroke-linejoin="round"/>
<path d="M35.7212 72.8976L42.1831 71.0967L47.501 75.1857" stroke="black" stroke-width="3" stroke-linecap="round" stroke-linejoin="round"/>
<path d="M15.9257 75.1647L10.0358 74.0206L4.17416 77.9755" stroke="black" stroke-width="3" stroke-linecap="round" stroke-linejoin="round"/>
<path d="M33.5955 78.5968L40.4671 79.9315L44.422 85.7932" stroke="black" stroke-width="3" stroke-linecap="round" stroke-linejoin="round"/>
<path d="M19.5768 61.6122L16.4129 56.9229L9.54135 55.5882" stroke="black" stroke-width="3" stroke-linecap="round" stroke-linejoin="round"/>
<path d="M35.2833 64.663L39.9726 61.4991L46.8441 62.8338" stroke="black" stroke-width="3" stroke-linecap="round" stroke-linejoin="round"/>
</svg>
