<svg width="120" height="120" viewBox="0 0 120 120" fill="none" xmlns="http://www.w3.org/2000/svg">
<path d="M15.5 26.5L34 28.5L34.5 51.5L61 48L91.5 46.5L101.5 23L115 2H6L23.5 11L15.5 26.5Z" fill="white" stroke="black" stroke-width="4" stroke-linejoin="round"/>
<path d="M23.5 2.5L36 8L28 19.5L42.5 20.5V36.5L61 33L81 32L87.5 17L97.5 2.5" stroke="black" stroke-width="3" stroke-linecap="round" stroke-linejoin="round"/>
<path d="M39.5 2.5L46 6L40 13.5L50.5 12.5L49.5 23L60.5 21L73 20L76.5 12L81.5 2.5" stroke="black" stroke-width="3" stroke-linecap="round" stroke-linejoin="round"/>
<path d="M24.5 70.5L60.5 2.5" stroke="black" stroke-width="3" stroke-linejoin="round"/>
<path d="M91.5 47L60.5 2.5" stroke="black" stroke-width="3" stroke-linejoin="round"/>
<path d="M16 26.5L60.5 2.5" stroke="black" stroke-width="3" stroke-linejoin="round"/>
<path d="M24.2026 60.5995L32.842 63.1218L36.2403 69.3227L33.718 77.962L27.5171 81.3604L18.8778 78.8381L15.4795 72.6372L18.0017 63.9979L24.2026 60.5995Z" fill="white" stroke="black" stroke-width="4" stroke-linejoin="round"/>
<path d="M16.2606 68.1774L11.3418 63.6161L4.74151 64.8144" stroke="black" stroke-width="3" stroke-linecap="round" stroke-linejoin="round"/>
<path d="M35.4592 73.7825L42.0595 72.5842L46.9783 77.1456" stroke="black" stroke-width="3" stroke-linecap="round" stroke-linejoin="round"/>
<path d="M15.5391 74.2172L9.77951 72.5357L3.57861 75.9341" stroke="black" stroke-width="3" stroke-linecap="round" stroke-linejoin="round"/>
<path d="M32.8177 79.2618L39.5372 81.2236L42.9355 87.4245" stroke="black" stroke-width="3" stroke-linecap="round" stroke-linejoin="round"/>
<path d="M20.4225 61.0585L17.7038 56.0978L10.9843 54.136" stroke="black" stroke-width="3" stroke-linecap="round" stroke-linejoin="round"/>
<path d="M35.7813 65.5426L40.742 62.8239L47.4615 64.7857" stroke="black" stroke-width="3" stroke-linecap="round" stroke-linejoin="round"/>
</svg>
