<svg width="120" height="120" viewBox="0 0 120 120" fill="none" xmlns="http://www.w3.org/2000/svg">
<path d="M15.5 26.5L34 28.5L34.5 51.5L61 48L91.5 46.5L101.5 23L115 2H6L23.5 11L15.5 26.5Z" fill="white" stroke="black" stroke-width="4" stroke-linejoin="round"/>
<path d="M23.5 2.5L36 8L28 19.5L42.5 20.5V36.5L61 33L81 32L87.5 17L97.5 2.5" stroke="black" stroke-width="3" stroke-linecap="round" stroke-linejoin="round"/>
<path d="M39.5 2.5L46 6L40 13.5L50.5 12.5L49.5 23L60.5 21L73 20L76.5 12L81.5 2.5" stroke="black" stroke-width="3" stroke-linecap="round" stroke-linejoin="round"/>
<path d="M24.5 70.5L60.5 2.5" stroke="black" stroke-width="3" stroke-linejoin="round"/>
<path d="M91.5 47L60.5 2.5" stroke="black" stroke-width="3" stroke-linejoin="round"/>
<path d="M16 26.5L60.5 2.5" stroke="black" stroke-width="3" stroke-linejoin="round"/>
<path d="M25.1455 60.474L33.508 63.8008L36.3057 70.2948L32.979 78.6574L26.485 81.4551L18.1224 78.1284L15.3247 71.6343L18.6514 63.2718L25.1455 60.474Z" fill="white" stroke="black" stroke-width="4" stroke-linejoin="round"/>
<path d="M16.5234 67.2682L12.0573 62.2629L5.3733 62.8326" stroke="black" stroke-width="3" stroke-linecap="round" stroke-linejoin="round"/>
<path d="M35.107 74.661L41.791 74.0912L46.2572 79.0966" stroke="black" stroke-width="3" stroke-linecap="round" stroke-linejoin="round"/>
<path d="M15.2349 73.2129L9.6598 70.9951L3.16574 73.7928" stroke="black" stroke-width="3" stroke-linecap="round" stroke-linejoin="round"/>
<path d="M31.96 79.8664L38.4642 82.4538L41.2619 88.9479" stroke="black" stroke-width="3" stroke-linecap="round" stroke-linejoin="round"/>
<path d="M21.339 60.5741L19.1008 55.3788L12.5966 52.7914" stroke="black" stroke-width="3" stroke-linecap="round" stroke-linejoin="round"/>
<path d="M36.2058 66.4883L41.401 64.2501L47.9053 66.8376" stroke="black" stroke-width="3" stroke-linecap="round" stroke-linejoin="round"/>
</svg>
