<svg width="120" height="120" viewBox="0 0 120 120" fill="none" xmlns="http://www.w3.org/2000/svg">
<path d="M15 28L33 31.5L37.5 51.5L63.5 45.5L91.5 46.5L100.5 22.5L115 2H6L22 12L15 28Z" fill="white" stroke="black" stroke-width="4" stroke-linejoin="round"/>
<path d="M26 74L60.5 2.5" stroke="black" stroke-width="3" stroke-linejoin="round"/>
<path d="M91.5 46L60.5 2.5" stroke="black" stroke-width="3" stroke-linejoin="round"/>
<path d="M16 27.5L60.5 2.5" stroke="black" stroke-width="3" stroke-linejoin="round"/>
<path d="M25.111 64.477L33.485 67.775L36.305 74.2594L33.0071 82.6334L26.5227 85.4534L18.1487 82.1555L15.3287 75.6711L18.6266 67.2971L25.111 64.477Z" fill="white" stroke="black" stroke-width="4" stroke-linejoin="round"/>
<path d="M16.5124 71.3009L12.029 66.3109L5.34707 66.9036" stroke="black" stroke-width="3" stroke-linecap="round" stroke-linejoin="round"/>
<path d="M35.1213 78.6296L41.8032 78.0369L46.2866 83.0268" stroke="black" stroke-width="3" stroke-linecap="round" stroke-linejoin="round"/>
<path d="M15.2443 77.2499L9.66161 75.0513L3.17721 77.8713" stroke="black" stroke-width="3" stroke-linecap="round" stroke-linejoin="round"/>
<path d="M31.9922 83.8458L38.5053 86.4109L41.3253 92.8953" stroke="black" stroke-width="3" stroke-linecap="round" stroke-linejoin="round"/>
<path d="M21.3048 64.5902L19.0487 59.4027L12.5356 56.8376" stroke="black" stroke-width="3" stroke-linecap="round" stroke-linejoin="round"/>
<path d="M36.1918 70.4532L41.3794 68.1971L47.8925 70.7622" stroke="black" stroke-width="3" stroke-linecap="round" stroke-linejoin="round"/>
<path d="M23.5 2.5L35 9L28.5 20.5L41.5 22L44 37.5L62.5 31.5L82 32L86.5 16.5L97.5 2.5" stroke="black" stroke-width="3" stroke-linecap="round" stroke-linejoin="round"/>
<path d="M39.5 2.5L45 6L40.5 14L50 13.5L50.5 23.5L61.5 20H73.5L76 11L81.5 2.5" stroke="black" stroke-width="3" stroke-linecap="round" stroke-linejoin="round"/>
</svg>
