<svg width="120" height="120" viewBox="0 0 120 120" fill="none" xmlns="http://www.w3.org/2000/svg">
<path d="M15 28L33 31.5L37.5 51.5L63.5 45.5L91.5 46.5L100.5 22.5L115 2H6L22 12L15 28Z" fill="white" stroke="black" stroke-width="4" stroke-linejoin="round"/>
<path d="M26 76L60.5 2.5" stroke="black" stroke-width="3" stroke-linejoin="round"/>
<path d="M91.5 46L60.5 2.5" stroke="black" stroke-width="3" stroke-linejoin="round"/>
<path d="M16 27.5L60.5 2.5" stroke="black" stroke-width="3" stroke-linejoin="round"/>
<path d="M23.5 2.5L35 9L28.5 20.5L41.5 22L44 37.5L62.5 31.5L82 32L86.5 16.5L97.5 2.5" stroke="black" stroke-width="3" stroke-linecap="round" stroke-linejoin="round"/>
<path d="M39.5 2.5L45 6L40.5 14L50 13.5L50.5 23.5L61.5 20H73.5L76 11L81.5 2.5" stroke="black" stroke-width="3" stroke-linecap="round" stroke-linejoin="round"/>
<path d="M26.577 67.4543L34.3828 71.9342L36.2305 78.7596L31.7506 86.5654L24.9252 88.4131L17.1194 83.9331L15.2717 77.1077L19.7516 69.3019L26.577 67.4543Z" fill="white" stroke="black" stroke-width="4" stroke-linejoin="round"/>
<path d="M17.0781 72.9559L13.3676 67.3674L6.6704 66.9827" stroke="black" stroke-width="3" stroke-linecap="round" stroke-linejoin="round"/>
<path d="M34.4242 82.9114L41.1213 83.2961L44.8319 88.8846" stroke="black" stroke-width="3" stroke-linecap="round" stroke-linejoin="round"/>
<path d="M14.9587 78.6575L9.75489 75.6709L2.92949 77.5186" stroke="black" stroke-width="3" stroke-linecap="round" stroke-linejoin="round"/>
<path d="M30.5703 87.6174L36.6415 91.1019L38.4891 97.9273" stroke="black" stroke-width="3" stroke-linecap="round" stroke-linejoin="round"/>
<path d="M22.7948 67.013L21.3167 61.5527L15.2455 58.0683" stroke="black" stroke-width="3" stroke-linecap="round" stroke-linejoin="round"/>
<path d="M36.6718 74.9774L42.1321 73.4992L48.2032 76.9836" stroke="black" stroke-width="3" stroke-linecap="round" stroke-linejoin="round"/>
</svg>
