<svg width="120" height="120" viewBox="0 0 120 120" fill="none" xmlns="http://www.w3.org/2000/svg">
<path d="M16 30.5L34 33.5L40 53L64.5 45H92.5L98 23L115 2H6L21.5 13.5L16 30.5Z" fill="white" stroke="black" stroke-width="4" stroke-linejoin="round"/>
<path d="M26.5 82L60.5 2.5" stroke="black" stroke-width="3" stroke-linejoin="round"/>
<path d="M93 45.5L60.5 2.5" stroke="black" stroke-width="3" stroke-linejoin="round"/>
<path d="M17 30L60.5 2.5" stroke="black" stroke-width="3" stroke-linejoin="round"/>
<path d="M27.6362 71.4578L35.4155 75.9837L37.223 82.8198L32.6971 90.5991L25.861 92.4065L18.0817 87.8807L16.2742 81.0446L20.8001 73.2653L27.6362 71.4578Z" fill="white" stroke="black" stroke-width="4" stroke-linejoin="round"/>
<path d="M18.1049 76.9035L14.4273 71.2932L7.73257 70.8691" stroke="black" stroke-width="3" stroke-linecap="round" stroke-linejoin="round"/>
<path d="M35.3922 86.9609L42.0869 87.385L45.7645 92.9953" stroke="black" stroke-width="3" stroke-linecap="round" stroke-linejoin="round"/>
<path d="M15.952 82.5925L10.7659 79.5753L3.92969 81.3828" stroke="black" stroke-width="3" stroke-linecap="round" stroke-linejoin="round"/>
<path d="M31.5106 91.6442L37.5612 95.1643L39.3686 102" stroke="black" stroke-width="3" stroke-linecap="round" stroke-linejoin="round"/>
<path d="M23.8566 70.9943L22.4106 65.5254L16.3601 62.0053" stroke="black" stroke-width="3" stroke-linecap="round" stroke-linejoin="round"/>
<path d="M37.6864 79.0402L43.1553 77.5943L49.2059 81.1144" stroke="black" stroke-width="3" stroke-linecap="round" stroke-linejoin="round"/>
<path d="M23.5 2.5L33.5 10L28.5 22.5L41.5 24L46.5 37L63 30L82.5 31L86 15.5L97.5 2.5" stroke="black" stroke-width="3" stroke-linecap="round" stroke-linejoin="round"/>
<path d="M39.5 2.5L45 7L40.5 15H49.5L52.5 23L62 18.5L73.5 19L76 10L81.5 2.5" stroke="black" stroke-width="3" stroke-linecap="round" stroke-linejoin="round"/>
</svg>
