<svg width="120" height="120" viewBox="0 0 120 120" fill="none" xmlns="http://www.w3.org/2000/svg">
<path d="M16 30.5L34 33.5L40 53L64.5 45H92.5L98 23L115 2H6L21.5 13.5L16 30.5Z" fill="white" stroke="black" stroke-width="4" stroke-linejoin="round"/>
<path d="M27 84.5L60.5 2.5" stroke="black" stroke-width="3" stroke-linejoin="round"/>
<path d="M93 45.5L60.5 2.5" stroke="black" stroke-width="3" stroke-linejoin="round"/>
<path d="M17 30L60.5 2.5" stroke="black" stroke-width="3" stroke-linejoin="round"/>
<path d="M23.5 2.5L33.5 10L28.5 22.5L41.5 24L46.5 37L63 30L82.5 31L86 15.5L97.5 2.5" stroke="black" stroke-width="3" stroke-linecap="round" stroke-linejoin="round"/>
<path d="M39.5 2.5L45 7L40.5 15H49.5L52.5 23L62 18.5L73.5 19L76 10L81.5 2.5" stroke="black" stroke-width="3" stroke-linecap="round" stroke-linejoin="round"/>
<path d="M27.4037 74.4458L35.2856 78.7904L37.2508 85.5829L32.9062 93.4648L26.1137 95.43L18.2318 91.0854L16.2666 84.2929L20.6112 76.411L27.4037 74.4458Z" fill="white" stroke="black" stroke-width="4" stroke-linejoin="round"/>
<path d="M18.001 80.1105L14.1946 74.5869L7.49181 74.3178" stroke="black" stroke-width="3" stroke-linecap="round" stroke-linejoin="round"/>
<path d="M35.5164 89.7652L42.2192 90.0343L46.0256 95.558" stroke="black" stroke-width="3" stroke-linecap="round" stroke-linejoin="round"/>
<path d="M15.9803 85.8479L10.7257 82.9515L3.93324 84.9167" stroke="black" stroke-width="3" stroke-linecap="round" stroke-linejoin="round"/>
<path d="M31.7441 94.5371L37.8745 97.9162L39.8397 104.709" stroke="black" stroke-width="3" stroke-linecap="round" stroke-linejoin="round"/>
<path d="M23.6144 74.0699L22.0422 68.6359L15.9118 65.2567" stroke="black" stroke-width="3" stroke-linecap="round" stroke-linejoin="round"/>
<path d="M37.6267 81.7936L43.0607 80.2214L49.1911 83.6006" stroke="black" stroke-width="3" stroke-linecap="round" stroke-linejoin="round"/>
</svg>
