<svg width="120" height="120" viewBox="0 0 120 120" fill="none" xmlns="http://www.w3.org/2000/svg">
<path d="M18 32.5L36.5 36L45 55L66.5 43H94.5L98 20.5L115 2H6L22 15L18 32.5Z" fill="white" stroke="black" stroke-width="4" stroke-linejoin="round"/>
<path d="M34.5 90.5L60.5 2.5" stroke="black" stroke-width="3" stroke-linejoin="round"/>
<path d="M94.5 43.5L60.5 2.5" stroke="black" stroke-width="3" stroke-linejoin="round"/>
<path d="M18.5 32.5L60.5 2.5" stroke="black" stroke-width="3" stroke-linejoin="round"/>
<path d="M23.5 2.5L34.5 10.5L30 24.5L44.5 26L50 39L64 30.5H84L86 14.5L97.5 2.5" stroke="black" stroke-width="3" stroke-linecap="round" stroke-linejoin="round"/>
<path d="M39.5 2.5L45.5 7.5L42.5 15.5L50.5 16.5L54 24.5L63.5 18.5H74.5L75.5 9.5L81.5 2.5" stroke="black" stroke-width="3" stroke-linecap="round" stroke-linejoin="round"/>
<path d="M34.8464 82.504L43.3047 85.5795L46.2951 91.9871L43.2196 100.445L36.812 103.436L28.3538 100.36L25.3634 93.9527L28.4388 85.4945L34.8464 82.504Z" fill="white" stroke="black" stroke-width="4" stroke-linejoin="round"/>
<path d="M26.4311 89.5527L21.8175 84.683L15.1535 85.4521" stroke="black" stroke-width="3" stroke-linecap="round" stroke-linejoin="round"/>
<path d="M45.2272 96.3871L51.8911 95.618L56.5048 100.488" stroke="black" stroke-width="3" stroke-linecap="round" stroke-linejoin="round"/>
<path d="M25.3207 95.5332L19.6819 93.4829L13.2743 96.4733" stroke="black" stroke-width="3" stroke-linecap="round" stroke-linejoin="round"/>
<path d="M42.2371 101.684L48.8157 104.076L51.8061 110.484" stroke="black" stroke-width="3" stroke-linecap="round" stroke-linejoin="round"/>
<path d="M31.0445 82.7177L28.6522 77.5916L22.0736 75.1996" stroke="black" stroke-width="3" stroke-linecap="round" stroke-linejoin="round"/>
<path d="M46.0814 88.1852L51.2075 85.7929L57.7861 88.1849" stroke="black" stroke-width="3" stroke-linecap="round" stroke-linejoin="round"/>
</svg>
