<svg width="120" height="120" viewBox="0 0 120 120" fill="none" xmlns="http://www.w3.org/2000/svg">
<path d="M20 36L41 38.5L54 55.5L73.5 40.5L96.5 41.5L99.5 18.5L115 2H6L21.5 15.5L20 36Z" fill="white" stroke="black" stroke-width="4" stroke-linejoin="round"/>
<path d="M48 100.5L60.5 2.5" stroke="black" stroke-width="3" stroke-linejoin="round"/>
<path d="M97 42L60.5 2.5" stroke="black" stroke-width="3" stroke-linejoin="round"/>
<path d="M20.5 35L60.5 2.5" stroke="black" stroke-width="3" stroke-linejoin="round"/>
<path d="M23.5 2.5L34 11.5L32 26.5L47 27.5L56 40L69.5 29.5H85.5L87 14L97.5 2.5" stroke="black" stroke-width="3" stroke-linecap="round" stroke-linejoin="round"/>
<path d="M39.5 2.5L45 7.5L44 16H53L58 23.5L65.5 18H75L75.5 9.5L81.5 2.5" stroke="black" stroke-width="3" stroke-linecap="round" stroke-linejoin="round"/>
<path d="M46.4487 87.3776L55.0228 90.1133L58.2664 96.3965L55.5307 104.971L49.2475 108.214L40.6734 105.479L37.4298 99.1953L40.1655 90.6212L46.4487 87.3776Z" fill="white" stroke="black" stroke-width="4" stroke-linejoin="round"/>
<path d="M38.3213 94.7563L33.5171 90.0744L26.8891 91.1087" stroke="black" stroke-width="3" stroke-linecap="round" stroke-linejoin="round"/>
<path d="M57.375 100.836L64.003 99.8013L68.8072 104.483" stroke="black" stroke-width="3" stroke-linecap="round" stroke-linejoin="round"/>
<path d="M37.4502 100.776L31.7341 98.9526L25.4509 102.196" stroke="black" stroke-width="3" stroke-linecap="round" stroke-linejoin="round"/>
<path d="M54.5985 106.248L61.2673 108.375L64.5109 114.659" stroke="black" stroke-width="3" stroke-linecap="round" stroke-linejoin="round"/>
<path d="M42.6584 87.7428L40.0635 82.7162L33.3948 80.5884" stroke="black" stroke-width="3" stroke-linecap="round" stroke-linejoin="round"/>
<path d="M57.9013 92.6062L62.9279 90.0113L69.5967 92.1391" stroke="black" stroke-width="3" stroke-linecap="round" stroke-linejoin="round"/>
</svg>
