<svg width="120" height="120" viewBox="0 0 120 120" fill="none" xmlns="http://www.w3.org/2000/svg">
<path d="M98 40H76L61 55H60L45 40H23V19L6.00001 2H115L98 19V40Z" fill="white" stroke="black" stroke-width="4" stroke-linejoin="round"/>
<path d="M60.5 105.5V2.5" stroke="black" stroke-width="3" stroke-linejoin="round"/>
<path d="M23.5 39.5L60.5 2.5" stroke="black" stroke-width="3" stroke-linejoin="round"/>
<path d="M97.5 39.5L60.5 2.5" stroke="black" stroke-width="3" stroke-linejoin="round"/>
<path d="M65 96H56L51 101V110L56 115H65L70 110V101L65 96Z" fill="white" stroke="black" stroke-width="4" stroke-linejoin="round"/>
<path d="M70.5 105.5L76.5 102.5L82.5 105.5" stroke="black" stroke-width="3" stroke-linecap="round" stroke-linejoin="round"/>
<path d="M50.5 105.5L44.5 102.5L38.5 105.5" stroke="black" stroke-width="3" stroke-linecap="round" stroke-linejoin="round"/>
<path d="M69.5 111.5H75.5L80.5 116.5" stroke="black" stroke-width="3" stroke-linecap="round" stroke-linejoin="round"/>
<path d="M51.5 111.5H44.5L39.5 116.5" stroke="black" stroke-width="3" stroke-linecap="round" stroke-linejoin="round"/>
<path d="M68.5 97.5L72.5 93.5H79.5" stroke="black" stroke-width="3" stroke-linecap="round" stroke-linejoin="round"/>
<path d="M52.5 97.5L48.5 93.5H41.5" stroke="black" stroke-width="3" stroke-linecap="round" stroke-linejoin="round"/>
<path d="M97.5 2.5L86.5 13.5V28.5H71.5L60.5 39.5L49.5 28.5H34.5V13.5L23.5 2.5" stroke="black" stroke-width="3" stroke-linecap="round" stroke-linejoin="round"/>
<path d="M81.5 2.5L75.5 8.5V17.5H66.5L60.5 23.5L54.5 17.5H45.5V8.5L39.5 2.5" stroke="black" stroke-width="3" stroke-linecap="round" stroke-linejoin="round"/>
</svg>
