<svg width="150" height="100" viewBox="0 0 150 100" fill="none" xmlns="http://www.w3.org/2000/svg">
<path d="M88.5759 64.0381L76.1958 45.4173L56.3472 47.8731L69.9652 68.3559L87.829 66.1458L88.5759 64.0381Z" fill="white" stroke="black" stroke-width="4" stroke-linecap="round" stroke-linejoin="round"/>
<path d="M79.2092 65.7008L66.8291 47.08" stroke="black" stroke-width="3" stroke-linecap="round" stroke-linejoin="round"/>
<path d="M124 48H114V49H71V48H62V11H124V48Z" fill="white" stroke="black" stroke-width="4" stroke-miterlimit="10" stroke-linecap="round" stroke-linejoin="round"/>
<path d="M70.5 23.5H116.5" stroke="black" stroke-width="3" stroke-miterlimit="10" stroke-linecap="round" stroke-linejoin="round"/>
<path d="M70.5 47.5L73.5 42.5H111.5L114.5 47.5" stroke="black" stroke-width="3" stroke-miterlimit="10" stroke-linecap="round" stroke-linejoin="round"/>
<path d="M78.5 36.5V29.5H86.5V36.5H78.5Z" stroke="black" stroke-width="3" stroke-miterlimit="10" stroke-linecap="round" stroke-linejoin="round"/>
<path d="M98.5 36.5V29.5H106.5V36.5H98.5Z" stroke="black" stroke-width="3" stroke-miterlimit="10" stroke-linecap="round" stroke-linejoin="round"/>
<path d="M86.5 29.5H98.5" stroke="black" stroke-width="3" stroke-miterlimit="10" stroke-linecap="round" stroke-linejoin="round"/>
<path d="M123 18H63" stroke="black" stroke-width="4" stroke-linecap="round" stroke-linejoin="round"/>
<path d="M20 47L34 63L61 54H92V43H57L61 39V23L57 19H47.5L20 47Z" fill="white" stroke="black" stroke-width="4" stroke-linecap="round" stroke-linejoin="round"/>
</svg>
